<svg id="visual" viewBox="0 0 900 900" width="900" height="900" xmlns="http://www.w3.org/2000/svg" xmlns:xlink="http://www.w3.org/1999/xlink" version="1.1"><rect x="0" y="0" width="900" height="900" fill="#ffffff"></rect><defs><linearGradient id="grad1_0" x1="0%" y1="0%" x2="100%" y2="100%"><stop offset="30%" stop-color="#fa3c7b" stop-opacity="1"></stop><stop offset="70%" stop-color="#fa3c7b" stop-opacity="1"></stop></linearGradient></defs><defs><linearGradient id="grad1_1" x1="0%" y1="0%" x2="100%" y2="100%"><stop offset="30%" stop-color="#fa3c7b" stop-opacity="1"></stop><stop offset="70%" stop-color="#ff89a5" stop-opacity="1"></stop></linearGradient></defs><defs><linearGradient id="grad1_2" x1="0%" y1="0%" x2="100%" y2="100%"><stop offset="30%" stop-color="#ffc6d1" stop-opacity="1"></stop><stop offset="70%" stop-color="#ff89a5" stop-opacity="1"></stop></linearGradient></defs><defs><linearGradient id="grad1_3" x1="0%" y1="0%" x2="100%" y2="100%"><stop offset="30%" stop-color="#ffc6d1" stop-opacity="1"></stop><stop offset="70%" stop-color="#ffffff" stop-opacity="1"></stop></linearGradient></defs><defs><linearGradient id="grad2_0" x1="0%" y1="0%" x2="100%" y2="100%"><stop offset="30%" stop-color="#fa3c7b" stop-opacity="1"></stop><stop offset="70%" stop-color="#fa3c7b" stop-opacity="1"></stop></linearGradient></defs><defs><linearGradient id="grad2_1" x1="0%" y1="0%" x2="100%" y2="100%"><stop offset="30%" stop-color="#ff89a5" stop-opacity="1"></stop><stop offset="70%" stop-color="#fa3c7b" stop-opacity="1"></stop></linearGradient></defs><defs><linearGradient id="grad2_2" x1="0%" y1="0%" x2="100%" y2="100%"><stop offset="30%" stop-color="#ff89a5" stop-opacity="1"></stop><stop offset="70%" stop-color="#ffc6d1" stop-opacity="1"></stop></linearGradient></defs><defs><linearGradient id="grad2_3" x1="0%" y1="0%" x2="100%" y2="100%"><stop offset="30%" stop-color="#ffffff" stop-opacity="1"></stop><stop offset="70%" stop-color="#ffc6d1" stop-opacity="1"></stop></linearGradient></defs><g transform="translate(900, 0)"><path d="M0 318.2C-11.6 305.9 -23.1 293.7 -35.2 289.9C-47.3 286.1 -59.9 290.8 -71.1 288.4C-82.3 286 -92 276.5 -103.2 272.1C-114.3 267.7 -126.9 268.4 -141.3 269.2C-155.7 270 -172 270.8 -180.8 261.9C-189.5 252.9 -190.6 234.1 -196.9 222.3C-203.3 210.6 -215 205.9 -223.1 197.6C-231.2 189.3 -235.7 177.5 -241.1 166.4C-246.6 155.4 -252.9 145.3 -254.1 133.4C-255.4 121.5 -251.6 107.8 -257.1 97.5C-262.6 87.2 -277.4 80.4 -288.4 71.1C-299.3 61.8 -306.4 50 -310.7 37.7C-315 25.5 -316.6 12.7 -318.2 0L0 0Z" fill="#ffe2e8"></path><path d="M0 238.6C-8.7 229.4 -17.3 220.2 -26.4 217.4C-35.5 214.6 -44.9 218.1 -53.3 216.3C-61.7 214.5 -69 207.4 -77.4 204.1C-85.8 200.8 -95.1 201.3 -106 201.9C-116.8 202.5 -129 203.1 -135.6 196.4C-142.1 189.7 -142.9 175.5 -147.7 166.7C-152.5 157.9 -161.2 154.4 -167.3 148.2C-173.4 142 -176.8 133.1 -180.9 124.8C-184.9 116.6 -189.6 109 -190.6 100C-191.5 91.1 -188.7 80.8 -192.8 73.1C-197 65.4 -208.1 60.3 -216.3 53.3C-224.5 46.3 -229.8 37.5 -233 28.3C-236.3 19.1 -237.5 9.6 -238.6 0L0 0Z" fill="#ffa8ba"></path><path d="M0 159.1C-5.8 153 -11.6 146.8 -17.6 144.9C-23.6 143 -29.9 145.4 -35.5 144.2C-41.1 143 -46 138.2 -51.6 136C-57.2 133.8 -63.4 134.2 -70.6 134.6C-77.9 135 -86 135.4 -90.4 130.9C-94.7 126.4 -95.3 117 -98.5 111.2C-101.7 105.3 -107.5 102.9 -111.5 98.8C-115.6 94.7 -117.9 88.7 -120.6 83.2C-123.3 77.7 -126.4 72.6 -127.1 66.7C-127.7 60.7 -125.8 53.9 -128.6 48.8C-131.3 43.6 -138.7 40.2 -144.2 35.5C-149.7 30.9 -153.2 25 -155.4 18.9C-157.5 12.7 -158.3 6.4 -159.1 0L0 0Z" fill="#ff6790"></path><path d="M0 79.5C-2.9 76.5 -5.8 73.4 -8.8 72.5C-11.8 71.5 -15 72.7 -17.8 72.1C-20.6 71.5 -23 69.1 -25.8 68C-28.6 66.9 -31.7 67.1 -35.3 67.3C-38.9 67.5 -43 67.7 -45.2 65.5C-47.4 63.2 -47.6 58.5 -49.2 55.6C-50.8 52.6 -53.7 51.5 -55.8 49.4C-57.8 47.3 -58.9 44.4 -60.3 41.6C-61.6 38.9 -63.2 36.3 -63.5 33.3C-63.8 30.4 -62.9 26.9 -64.3 24.4C-65.7 21.8 -69.4 20.1 -72.1 17.8C-74.8 15.4 -76.6 12.5 -77.7 9.4C-78.8 6.4 -79.2 3.2 -79.5 0L0 0Z" fill="#fa3c7b"></path></g><g transform="translate(0, 900)"><path d="M0 -318.2C13.9 -322.3 27.9 -326.3 38.4 -315.9C48.8 -305.4 55.9 -280.4 68.2 -276.7C80.5 -273 98.1 -290.7 110.6 -291.7C123.2 -292.8 130.6 -277.3 141.7 -270.1C152.8 -262.8 167.6 -263.9 176.7 -255.9C185.8 -248 189.3 -231.1 191.6 -216.3C194 -201.6 195.2 -189 207.3 -183.7C219.5 -178.4 242.5 -180.5 246.9 -170.4C251.3 -160.4 237.2 -138.3 241.7 -126.9C246.3 -115.5 269.5 -114.8 285.2 -108.2C300.9 -101.5 309.2 -88.7 304.9 -75.1C300.6 -61.6 283.8 -47.1 283.9 -34.5C284 -21.8 301.1 -10.9 318.2 0L0 0Z" fill="#ffe2e8"></path><path d="M0 -238.6C10.4 -241.7 20.9 -244.8 28.8 -236.9C36.6 -229.1 41.9 -210.3 51.2 -207.5C60.4 -204.8 73.6 -218 83 -218.8C92.4 -219.6 98 -208 106.3 -202.5C114.6 -197.1 125.7 -197.9 132.5 -192C139.3 -186 142 -173.3 143.7 -162.2C145.5 -151.2 146.4 -141.7 155.5 -137.8C164.6 -133.8 181.8 -135.3 185.2 -127.8C188.5 -120.3 177.9 -103.7 181.3 -95.2C184.7 -86.6 202.1 -86.1 213.9 -81.1C225.7 -76.1 231.9 -66.5 228.7 -56.4C225.4 -46.2 212.8 -35.4 212.9 -25.9C213 -16.4 225.8 -8.2 238.6 0L0 0Z" fill="#ffa8ba"></path><path d="M0 -159.1C7 -161.1 13.9 -163.2 19.2 -157.9C24.4 -152.7 27.9 -140.2 34.1 -138.4C40.3 -136.5 49.1 -145.3 55.3 -145.9C61.6 -146.4 65.3 -138.6 70.9 -135C76.4 -131.4 83.8 -131.9 88.3 -128C92.9 -124 94.6 -115.5 95.8 -108.2C97 -100.8 97.6 -94.5 103.7 -91.8C109.7 -89.2 121.2 -90.2 123.4 -85.2C125.7 -80.2 118.6 -69.1 120.9 -63.4C123.1 -57.7 134.7 -57.4 142.6 -54.1C150.5 -50.7 154.6 -44.4 152.4 -37.6C150.3 -30.8 141.9 -23.6 142 -17.2C142 -10.9 150.6 -5.5 159.1 0L0 0Z" fill="#ff6790"></path><path d="M0 -79.5C3.5 -80.6 7 -81.6 9.6 -79C12.2 -76.4 14 -70.1 17.1 -69.2C20.1 -68.3 24.5 -72.7 27.7 -72.9C30.8 -73.2 32.7 -69.3 35.4 -67.5C38.2 -65.7 41.9 -66 44.2 -64C46.4 -62 47.3 -57.8 47.9 -54.1C48.5 -50.4 48.8 -47.2 51.8 -45.9C54.9 -44.6 60.6 -45.1 61.7 -42.6C62.8 -40.1 59.3 -34.6 60.4 -31.7C61.6 -28.9 67.4 -28.7 71.3 -27C75.2 -25.4 77.3 -22.2 76.2 -18.8C75.1 -15.4 70.9 -11.8 71 -8.6C71 -5.5 75.3 -2.7 79.5 0L0 0Z" fill="#fa3c7b"></path></g></svg>