<svg id="visual" viewBox="0 0 900 600" width="900" height="600" xmlns="http://www.w3.org/2000/svg" xmlns:xlink="http://www.w3.org/1999/xlink" version="1.1"><path d="M0 25L225 25L450 25L675 25L900 25L900 0L675 0L450 0L225 0L0 0Z" fill="#6600ff"></path><path d="M0 91L225 91L450 97L675 91L900 97L900 23L675 23L450 23L225 23L0 23Z" fill="#9b00ee"></path><path d="M0 139L225 139L450 145L675 145L900 151L900 95L675 89L450 95L225 89L0 89Z" fill="#bd00de"></path><path d="M0 181L225 187L450 193L675 193L900 193L900 149L675 143L450 143L225 137L0 137Z" fill="#d511d0"></path><path d="M0 211L225 217L450 223L675 223L900 223L900 191L675 191L450 191L225 185L0 179Z" fill="#e631c4"></path><path d="M0 247L225 259L450 265L675 259L900 259L900 221L675 221L450 221L225 215L0 209Z" fill="#f24abb"></path><path d="M0 367L225 379L450 379L675 379L900 379L900 257L675 257L450 263L225 257L0 245Z" fill="#fb62b4"></path><path d="M0 397L225 403L450 409L675 409L900 409L900 377L675 377L450 377L225 377L0 365Z" fill="#ff78b1"></path><path d="M0 421L225 427L450 433L675 433L900 433L900 407L675 407L450 407L225 401L0 395Z" fill="#ff8eb1"></path><path d="M0 457L225 457L450 463L675 463L900 469L900 431L675 431L450 431L225 425L0 419Z" fill="#ffa3b5"></path><path d="M0 481L225 481L450 487L675 487L900 493L900 467L675 461L450 461L225 455L0 455Z" fill="#fdb7bd"></path><path d="M0 601L225 601L450 601L675 601L900 601L900 491L675 485L450 485L225 479L0 479Z" fill="#f7caca"></path></svg>